<svg xmlns="http://www.w3.org/2000/svg">
<symbol id="compass" viewBox="0 0 24 24"><circle cx="12" cy="12" r="9"/><path d="m15.5 8.5-2.2 4.8-4.8 2.2 2.2-4.8 4.8-2.2Z"/></symbol>
<symbol id="brain" viewBox="0 0 24 24"><path d="M9.5 5.2A3.2 3.2 0 0 0 4 7.5c0 .4.1.8.2 1.1A3.5 3.5 0 0 0 5 15.2v.3A3.5 3.5 0 0 0 11.5 17V7a2.5 2.5 0 0 0-2-1.8Z"/><path d="M14.5 5.2A3.2 3.2 0 0 1 20 7.5c0 .4-.1.8-.2 1.1a3.5 3.5 0 0 1-.8 6.6v.3A3.5 3.5 0 0 1 12.5 17V7a2.5 2.5 0 0 1 2-1.8Z"/><path d="M7 10h2M15 10h2M7.5 14H10M14 14h2.5"/></symbol>
<symbol id="boat" viewBox="0 0 24 24"><path d="M4 16h16l-2 4H7l-3-4Z"/><path d="M12 3v13M12 4l6 10h-6M11 6l-5 8h5"/></symbol>
<symbol id="flask" viewBox="0 0 24 24"><path d="M9 3h6M10 3v6l-5 8a2 2 0 0 0 1.7 3h10.6A2 2 0 0 0 19 17l-5-8V3"/><path d="M8 15h8"/></symbol>
<symbol id="settings" viewBox="0 0 24 24"><circle cx="12" cy="12" r="3"/><path d="M19 12a7 7 0 0 0-.1-1l2-1.5-2-3.5-2.4 1a7 7 0 0 0-1.8-1L14.4 3h-4.8l-.3 3a7 7 0 0 0-1.8 1L5 6 3 9.5 5.1 11a7 7 0 0 0 0 2L3 14.5 5 18l2.5-1a7 7 0 0 0 1.8 1l.3 3h4.8l.3-3a7 7 0 0 0 1.8-1l2.5 1 2-3.5-2.1-1.5c.1-.3.1-.7.1-1Z"/></symbol>
<symbol id="pin" viewBox="0 0 24 24"><path d="M12 21s6-5.2 6-11a6 6 0 1 0-12 0c0 5.8 6 11 6 11Z"/><circle cx="12" cy="10" r="2"/></symbol>
<symbol id="speed" viewBox="0 0 24 24"><path d="M4 15a8 8 0 1 1 16 0"/><path d="m12 15 4-4"/><path d="M7 15h10"/></symbol>
<symbol id="heading" viewBox="0 0 24 24"><circle cx="12" cy="12" r="9"/><path d="m12 5 3 7-3 7-3-7 3-7Z"/></symbol>
<symbol id="route" viewBox="0 0 24 24"><circle cx="6" cy="18" r="2"/><circle cx="18" cy="6" r="2"/><path d="M8 18c6 0 2-10 8-10"/></symbol>
<symbol id="record" viewBox="0 0 24 24"><circle cx="12" cy="12" r="5"/></symbol>
<symbol id="stop" viewBox="0 0 24 24"><rect x="7" y="7" width="10" height="10" rx="1"/></symbol>
<symbol id="export" viewBox="0 0 24 24"><path d="M12 15V3M8 7l4-4 4 4M5 13v7h14v-7"/></symbol>
<symbol id="clear" viewBox="0 0 24 24"><path d="m4 19 6-6M9 12l6-6 3 3-6 6M3 21h6"/></symbol>
<symbol id="refresh" viewBox="0 0 24 24"><path d="M20 6v5h-5M4 18v-5h5"/><path d="M6.5 8a7 7 0 0 1 11.5-1.5L20 11M4 13l2 4a7 7 0 0 0 11.5-1"/></symbol>
<symbol id="clock" viewBox="0 0 24 24"><circle cx="12" cy="12" r="9"/><path d="M12 7v5l3 2"/></symbol>
<symbol id="day" viewBox="0 0 24 24"><path d="M12 3v2M12 19v2M3 12h2M19 12h2M5.6 5.6 7 7M17 17l1.4 1.4M18.4 5.6 17 7M7 17l-1.4 1.4"/><circle cx="12" cy="12" r="4"/></symbol>
<symbol id="city" viewBox="0 0 24 24"><path d="M4 21V8h6v13M10 21V4h10v17M7 11h1M7 15h1M13 8h1M17 8h1M13 12h1M17 12h1M13 16h1M17 16h1"/></symbol>
<symbol id="zone" viewBox="0 0 24 24"><path d="M4 4h6v6H4zM14 4h6v6h-6zM4 14h6v6H4zM14 14h6v6h-6z"/></symbol>
<symbol id="target" viewBox="0 0 24 24"><circle cx="12" cy="12" r="8"/><circle cx="12" cy="12" r="3"/><path d="M12 2v3M12 19v3M2 12h3M19 12h3"/></symbol>
<symbol id="eye" viewBox="0 0 24 24"><path d="M2 12s4-6 10-6 10 6 10 6-4 6-10 6S2 12 2 12Z"/><circle cx="12" cy="12" r="2.5"/></symbol>
<symbol id="info" viewBox="0 0 24 24"><circle cx="12" cy="12" r="9"/><path d="M12 10v6M12 7h.01"/></symbol>
<symbol id="food" viewBox="0 0 24 24"><path d="M7 3v8M4 3v5a3 3 0 0 0 6 0V3M7 11v10M16 3v18M16 3c4 2 4 8 0 10"/></symbol>
<symbol id="chat" viewBox="0 0 24 24"><path d="M4 5h16v11H9l-5 4V5Z"/></symbol>
<symbol id="close" viewBox="0 0 24 24"><path d="m7 7 10 10M17 7 7 17"/></symbol>
<symbol id="search" viewBox="0 0 24 24"><circle cx="10.5" cy="10.5" r="6.5"/><path d="M16 16l5 5"/></symbol>
</svg>
